<?xml version="1.0" encoding="UTF-8"?>
<!DOCTYPE svg PUBLIC "-//W3C//DTD SVG 1.1//EN" "http://www.w3.org/Graphics/SVG/1.1/DTD/svg11.dtd">
<!-- Creator: CorelDRAW 2017 -->
<svg xmlns="http://www.w3.org/2000/svg" xml:space="preserve" width="79.9252mm" height="24.0452mm" version="1.1" style="shape-rendering:geometricPrecision; text-rendering:geometricPrecision; image-rendering:optimizeQuality; fill-rule:evenodd; clip-rule:evenodd"
viewBox="0 0 7992.52 2404.52"
 xmlns:xlink="http://www.w3.org/1999/xlink">
 <defs>
 <style type="text/css">
        
        :root {
            --logo-color: white;
            --logo-fil2-color: #606062;
            
        };


</style>
  <style type="text/css">

<!-- For default logo with color -->
    <!-- .fil2 {fill:#606062;fill-rule:nonzero}
    .fil1 {fill:url(#id0)}
    .fil0 {fill:url(#id1)} -->

<!-- For white logo -->
    .fil2 {fill: white;fill-rule:nonzero}
    .fil1 {fill:white}
    .fil0 {fill:white}


  </style>
  <linearGradient id="id0" gradientUnits="userSpaceOnUse" x1="171.57" y1="744.98" x2="1819.29" y2="1903.65">
   <stop offset="0" style="stop-opacity:1; stop-color:#046168"/>
   <stop offset="0.501961" style="stop-opacity:1; stop-color:#00B6B5"/>
   <stop offset="1" style="stop-opacity:1; stop-color:#00B6B5"/>
  </linearGradient>
  <linearGradient id="id1" gradientUnits="userSpaceOnUse" x1="580.73" y1="399.25" x2="2228.51" y2="1557.96">
   <stop offset="0" style="stop-opacity:1; stop-color:#05B8B2"/>
   <stop offset="0.501961" style="stop-opacity:1; stop-color:#05B8B2"/>
   <stop offset="1" style="stop-opacity:1; stop-color:#005F63"/>
  </linearGradient>
 </defs>
 <g id="Layer_x0020_1">
  <metadata id="CorelCorpID_0Corel-Layer"/>
  <g id="_1927999634208">
   <path class="fil0" d="M841.7 134.33c-61.46,42.09 -114.71,91.73 -159.77,146.58l0 0c143.15,-14.79 287.91,7.72 419.79,64.18l0 0c196.05,-80.83 429.17,-16.74 553.62,165.17l0 0 93.09 135.93 145.61 212.73 115.31 168.37c142.98,208.9 89.35,495.11 -119.5,638.14l0 0c-208.9,142.95 -495.13,89.37 -638.15,-119.5l0 0 -131.2 -191.77 -133.66 -195.21 -89.1 -130.14c-61.93,-90.5 -86.95,-195.55 -78.43,-297.19l0 0c-91.39,-11.87 -187.27,8.38 -269.17,64.46l0 0c-14.51,9.93 -28.07,20.78 -40.82,32.27l0 0c9.74,130.6 52.89,260.36 132,376l0 0 95.08 138.87 125.69 183.59 133.24 194.66c239.76,350.23 719.78,440.15 1070.05,200.39l0 0c350.24,-239.81 440.14,-719.85 200.38,-1070.12l0 0 -115.29 -168.37 -171.56 -250.57 -67.14 -98.09c-148.97,-217.64 -390.64,-334.71 -636.33,-334.71l0 0c-149.76,0 -301.06,43.53 -433.74,134.33l0 0z"/>
   <path class="fil1" d="M334.71 481.38c-350.23,239.81 -440.14,719.79 -200.38,1070.07l0 0 95.08 138.87 125.64 183.54 133.24 194.62c239.76,350.32 719.8,440.19 1070.07,200.43l0 0c61.46,-42.11 114.66,-91.75 159.72,-146.6l0 0c-143.15,14.76 -287.88,-7.71 -419.71,-64.21l0 0c-196.1,80.83 -429.17,16.78 -553.67,-165.12l0 0 -131.24 -191.68 -133.6 -195.25 -89.12 -130.15c-142.98,-208.9 -89.35,-495.11 119.5,-638.09l0 0c208.91,-142.98 495.13,-89.4 638.11,119.5l0 0 93.09 135.98 145.61 212.67 115.26 168.41c61.97,90.51 86.99,195.6 78.42,297.25l0 0c91.4,11.82 187.32,-8.44 269.19,-64.48l0 0c14.54,-9.91 28.06,-20.73 40.77,-32.22l0 0c-9.79,-130.63 -52.78,-260.4 -131.96,-376.04l0 0 -115.26 -168.42 -171.59 -250.61 -67.11 -98.09c-148.96,-217.63 -390.63,-334.71 -636.32,-334.71l0 0c-149.81,0 -301.1,43.54 -433.74,134.33l0 0z"/>
   <polygon class="fil2" points="2817.56,2391.66 2884.84,2391.66 2884.84,1781.03 2817.56,1781.03 "/>
   <path class="fil2" d="M3377.05 1972.42c-14.51,-18.36 -33.58,-32.56 -56.68,-42.19 -22.73,-9.53 -50.79,-14.32 -83.52,-14.32 -26.14,0 -49.72,3.77 -70.11,11.23 -20.13,7.42 -37.82,16.83 -52.39,28.03 -14.54,11.15 -26.88,23.31 -36.63,36.15 -1.02,1.28 -1.91,2.55 -2.88,3.81 0,-7.24 -0.17,-13.77 -0.47,-19.66l-0.97 -18.86c-0.34,-5.9 -0.81,-12.43 -1.48,-19.64l-0.94 -9.49 -61.51 0 1.06 11.45c0.68,6.99 1.15,13.39 1.49,19.32 0.25,5.94 0.42,12.18 0.42,18.75l0 414.65 64.34 0 0 -238.82c0,-20.05 3.23,-40.73 9.63,-61.47 6.36,-20.52 15.98,-39.5 28.69,-56.5 12.65,-16.79 28.75,-30.74 47.87,-41.51 18.91,-10.63 41.8,-16.02 68.08,-16.02 20.04,0 37.93,2.46 53.24,7.25 14.37,4.53 26.75,12.55 36.63,23.91 10.16,11.57 18.01,27.59 23.31,47.77 5.52,20.94 8.3,47.57 8.3,79.23l0 256.16 64.4 0 0 -270.61c0,-30.19 -3.01,-58.08 -8.99,-82.92 -6.1,-25.48 -16.45,-47.6 -30.89,-65.7z"/>
   <path class="fil2" d="M3771.68 2308.06c-10.6,12.93 -21.16,22.08 -31.29,27.13 -17.42,8.78 -45.14,9.59 -65.82,4.02 -7.72,-2.03 -14.46,-6.22 -20.53,-12.84 -6.14,-6.65 -10.98,-17.08 -14.37,-31.03 -3.64,-14.84 -5.5,-35.22 -5.5,-60.62l0 -245.78 146.45 0 0 -61.46 -146.45 0 0 -146.45 -64.28 0 -0.03 146.45 -88.68 0 0 61.46 88.68 0 0 256.38c0,30.99 3,55.79 9.11,75.85 6.23,20.38 15.14,36.99 26.41,49.25 11.53,12.68 25.82,21.45 42.44,26.15 15.68,4.41 32.85,6.65 51.08,6.65 27.93,0 51.2,-4.99 69.09,-14.79 17.55,-9.62 33.44,-23.53 47.09,-41.29l5.72 -7.46 -41.96 -40.4 -7.16 8.78z"/>
   <path class="fil2" d="M3941.04 2123.08c2.03,-17.72 6.39,-34.63 13.22,-50.41 8.14,-19.03 18.95,-35.86 32.18,-49.97 13.09,-13.99 29.03,-25.18 47.17,-33.24 18.19,-8.05 38.62,-12.13 60.84,-12.13 43.15,0 78.59,13.28 105.33,39.43 24.92,24.38 40.91,60.12 47.48,106.32l-306.22 0zm312.79 -141.17c-19.88,-21.57 -43.78,-38.15 -71.17,-49.34 -55.57,-22.63 -125.44,-22.42 -179.35,2.64 -27.56,12.71 -51.39,30.47 -70.92,52.69 -19.37,21.95 -34.77,48.03 -45.87,77.41 -10.93,29.41 -16.49,61.12 -16.49,94.26 0,35.87 5.89,69.11 17.6,98.74 11.6,29.72 28.09,55.66 48.91,77.14 20.82,21.54 46.16,38.41 75.42,50.15 29.08,11.7 60.99,17.64 94.99,17.64 35.86,0 71.47,-7.25 105.68,-21.54 34.59,-14.42 62.4,-34.76 82.71,-60.49l6.3 -7.96 -46.83 -39.51 -6.66 8.39c-7.03,8.77 -15.85,16.83 -26.23,23.94 -10.6,7.26 -22.47,13.74 -35.32,19.25 -12.59,5.39 -25.99,9.58 -39.81,12.34 -40.73,8.01 -77.11,4.15 -107.46,-8.95 -20.09,-8.73 -37.6,-20.85 -51.92,-36.11 -14.46,-15.35 -26.08,-33.7 -34.55,-54.56 -7.21,-17.68 -11.57,-36.63 -13.1,-56.42l377.15 0 0 -10.51c0,-40.79 -5.56,-77.41 -16.53,-108.94 -11.06,-31.8 -26.66,-58.8 -46.55,-80.26z"/>
   <path class="fil2" d="M4637.67 1922.66c-24.94,0 -47.28,3.77 -66.48,11.32 -18.86,7.41 -35.6,16.65 -49.67,27.47 -14.29,10.8 -26.16,22.71 -35.4,35.39 -0.64,0.8 -1.19,1.61 -1.78,2.41 0,-7.54 -0.17,-14.45 -0.47,-20.85l-0.97 -20.81c-0.39,-6.53 -0.81,-13.4 -1.49,-20.61l-0.93 -9.49 -61.51 0 1.06 11.44c0.67,6.96 1.14,13.4 1.48,19.34 0.26,5.88 0.43,12.16 0.43,18.73l0 414.66 64.38 0 0 -236.92c0,-20.59 3.52,-41.32 10.43,-61.59 7,-20.35 16.96,-38.53 29.6,-54.17 12.49,-15.51 27.63,-28.28 45.06,-37.85 16.99,-9.38 36.37,-14.12 57.56,-14.12 4.79,0 10.09,0.29 15.77,0.89 5.09,0.55 9.41,1.56 12.85,3.05l10.8 4.66 18.65 -61.59 -8.56 -3.73c-11.65,-5.09 -25.35,-7.63 -40.81,-7.63z"/>
   <path class="fil2" d="M5137.95 1972.42c-14.51,-18.36 -33.58,-32.56 -56.68,-42.19 -22.72,-9.53 -50.78,-14.32 -83.51,-14.32 -26.2,0 -49.73,3.77 -70.12,11.23 -20.13,7.42 -37.8,16.83 -52.39,28.03 -14.54,11.15 -26.87,23.31 -36.63,36.15 -1.02,1.28 -1.91,2.55 -2.88,3.81 0,-7.24 -0.17,-13.77 -0.5,-19.66l-0.94 -18.86c-0.37,-5.9 -0.84,-12.43 -1.48,-19.64l-0.94 -9.49 -61.51 0 1.07 11.45c0.67,6.99 1.1,13.39 1.48,19.32 0.25,5.94 0.38,12.18 0.38,18.75l0 414.65 64.4 0 0 -238.82c0,-20.05 3.22,-40.73 9.61,-61.47 6.36,-20.52 15.98,-39.5 28.71,-56.5 12.63,-16.79 28.73,-30.74 47.85,-41.51 18.91,-10.63 41.8,-16.02 68.08,-16.02 20.01,0 37.94,2.46 53.25,7.25 14.37,4.53 26.7,12.55 36.62,23.91 10.18,11.57 18.01,27.59 23.31,47.77 5.52,20.94 8.32,47.57 8.32,79.23l0 256.16 64.38 0 0 -270.61c0,-30.19 -3,-58.08 -8.98,-82.92 -6.1,-25.48 -16.49,-47.6 -30.9,-65.7z"/>
   <path class="fil2" d="M5602.54 2217.41c0,14.96 -3.82,30 -11.36,44.89 -7.67,15.04 -18.4,28.73 -31.84,40.73 -13.39,11.96 -29.38,21.66 -47.52,28.91 -17.93,7.2 -37.38,10.86 -57.73,10.86 -31.07,0 -56.76,-6.88 -76.48,-20.36 -18.68,-12.8 -27.67,-32.97 -27.67,-61.72 0,-10.17 1.36,-21.95 4.06,-34.88 2.55,-12.12 8.31,-23.57 17.09,-34 8.77,-10.55 22.17,-19.58 39.81,-26.92 17.92,-7.46 42.85,-11.24 74,-11.24 30.99,0 56.68,1.11 76.36,3.32 15.89,1.78 29.75,3.86 41.28,6.19l0 54.22zm64.35 135.94c-0.67,-8.06 -0.94,-17.6 -0.94,-28.53l0 -240.4c0,-59.65 -17.07,-103.26 -50.73,-129.66 -32.98,-25.78 -79.7,-38.84 -138.96,-38.84 -40.61,0 -75.63,6.83 -104.24,20.26 -28.52,13.45 -48.83,26.03 -61.93,38.5l-6.91 6.52 35.56 45.99 8.35 -6.95c10.95,-9.12 26.96,-18.9 47.57,-29.04 19.88,-9.79 47.65,-14.83 82.53,-14.83 21.03,0 39.68,1.87 55.49,5.56 15.04,3.43 27.77,9.54 38.02,18.06 10.06,8.38 17.72,19.79 22.81,33.99 5.38,14.92 8.1,34.16 8.1,57.18l0 12.77c-12.63,-1.87 -26.87,-3.49 -42.52,-4.92 -21.24,-1.91 -45.86,-2.88 -73.21,-2.88 -35.64,0 -66.6,4.19 -91.94,12.54 -25.65,8.44 -46.97,20.18 -63.46,34.88 -16.58,14.88 -28.87,32.82 -36.59,53.33 -7.46,20.01 -11.23,41.54 -11.23,63.84 0,28.03 5.18,51.59 15.26,70.12 10.13,18.4 23.36,33.24 39.51,44.12 15.81,10.68 33.96,18.19 53.83,22.3 19.2,3.95 38.71,5.98 57.99,5.98 12.85,0 26.88,-1.35 41.84,-4.03 15.18,-2.71 30.91,-7.46 46.55,-14.15 15.94,-6.78 31.33,-16.2 45.95,-28.03 7.25,-5.93 14.21,-12.59 20.9,-19.92l0 1.7c0,9.37 0.34,17.47 0.97,23.1 0,7.5 0.34,14.24 1.02,20.39l0.98 9.36 62.31 0 -0.97 -11.35c-0.64,-7.63 -1.32,-16.57 -1.91,-26.96z"/>
   <path class="fil2" d="M6026.02 2308.06c-10.6,12.93 -21.16,22.08 -31.29,27.13 -17.43,8.78 -45.1,9.59 -65.84,4.02 -7.71,-2.03 -14.44,-6.22 -20.51,-12.84 -6.14,-6.65 -10.98,-17.08 -14.37,-31.03 -3.64,-14.84 -5.51,-35.22 -5.51,-60.62l0 -245.78 146.46 0 0 -61.46 -146.46 0 0.04 -146.45 -64.35 0 0 146.45 -88.68 0 0 61.46 88.68 0 0 256.38c0,30.99 3.01,55.79 9.11,75.85 6.24,20.38 15.14,36.99 26.41,49.25 11.54,12.68 25.83,21.45 42.43,26.15 15.7,4.41 32.85,6.65 51.05,6.65 27.97,0 51.25,-4.99 69.14,-14.79 17.54,-9.62 33.44,-23.53 47.09,-41.29l5.72 -7.46 -41.96 -40.4 -7.16 8.78z"/>
   <polygon class="fil2" points="6151.01,1864.62 6232.74,1864.62 6232.74,1781.03 6151.01,1781.03 "/>
   <polygon class="fil2" points="6159.67,2391.66 6224.06,2391.66 6224.06,1927.49 6159.67,1927.49 "/>
   <path class="fil2" d="M6728.48 2231.33c-8.78,22.09 -21.07,41.54 -36.45,57.87 -15.39,16.32 -33.92,29.45 -55.07,39.08 -41.34,19 -92.15,19.5 -134.85,0 -20.94,-9.54 -39.42,-23.01 -54.85,-39.93 -15.43,-16.96 -27.94,-36.71 -37.05,-58.63 -9.12,-21.75 -13.7,-45.36 -13.7,-70.15 0,-25.44 4.41,-49.6 13.2,-71.77 8.85,-22.09 21.1,-41.54 36.49,-57.86 15.31,-16.23 33.74,-29.43 54.52,-39.09 20.73,-9.57 43.74,-14.45 68.37,-14.45 23.4,0 45.91,4.88 66.93,14.45 21.11,9.66 39.56,23.11 54.9,39.93 15.48,17.01 27.98,36.88 37.1,59.05 9.02,22.09 13.65,45.49 13.65,69.74 0,25.56 -4.46,49.68 -13.19,71.76zm9.5 -243.87c-21.75,-22.05 -47.31,-39.67 -75.97,-52.35 -57.86,-25.47 -127.94,-25.47 -185.79,0 -28.75,12.71 -54.3,30.35 -76.02,52.35 -21.7,22.04 -38.95,48.07 -51.33,77.5 -12.38,29.41 -18.65,61.24 -18.65,94.61 0,33.41 6.27,65.24 18.65,94.65 12.34,29.34 29.63,55.41 51.33,77.45 21.72,22.08 47.27,39.68 76.02,52.4 28.86,12.71 60.07,19.15 92.87,19.15 32.82,0 64.01,-6.44 92.92,-19.15 28.66,-12.68 54.17,-30.32 75.97,-52.4 21.7,-22.12 39.04,-48.15 51.37,-77.45 12.34,-29.41 18.61,-61.24 18.61,-94.65 0,-33.37 -6.27,-65.2 -18.61,-94.66 -12.33,-29.3 -29.67,-55.32 -51.37,-77.45z"/>
   <path class="fil2" d="M7277.59 1972.42c-14.5,-18.36 -33.57,-32.56 -56.68,-42.19 -22.72,-9.53 -50.78,-14.32 -83.5,-14.32 -26.21,0 -49.74,3.77 -70.12,11.23 -20.14,7.42 -37.81,16.83 -52.4,28.03 -14.54,11.15 -26.87,23.31 -36.62,36.15 -1.01,1.28 -1.9,2.55 -2.89,3.81 0,-7.24 -0.17,-13.77 -0.45,-19.66l-0.99 -18.86c-0.37,-5.9 -0.84,-12.43 -1.48,-19.64l-0.94 -9.49 -61.49 0 1.05 11.45c0.68,6.99 1.1,13.39 1.48,19.32 0.25,5.94 0.39,12.18 0.39,18.75l0 414.65 64.39 0 0 -238.82c0,-20.05 3.22,-40.73 9.61,-61.47 6.37,-20.52 15.99,-39.5 28.71,-56.5 12.63,-16.79 28.74,-30.74 47.86,-41.51 18.9,-10.63 41.79,-16.02 68.07,-16.02 20.01,0 37.95,2.46 53.25,7.25 14.37,4.53 26.74,12.55 36.62,23.91 10.18,11.57 18.01,27.59 23.31,47.77 5.52,20.94 8.32,47.57 8.32,79.23l0 256.16 64.39 0 0 -270.61c0,-30.19 -3.01,-58.08 -8.98,-82.92 -6.11,-25.48 -16.5,-47.6 -30.91,-65.7z"/>
   <path class="fil2" d="M7737.16 2217.41c0,14.96 -3.82,30 -11.4,44.89 -7.63,15.04 -18.36,28.73 -31.85,40.73 -13.38,11.96 -29.33,21.66 -47.47,28.91 -17.93,7.2 -37.38,10.86 -57.74,10.86 -31.07,0 -56.75,-6.88 -76.47,-20.36 -18.7,-12.8 -27.67,-32.97 -27.67,-61.72 0,-10.17 1.34,-21.95 4.06,-34.88 2.55,-12.12 8.31,-23.57 17.08,-34 8.78,-10.55 22.17,-19.58 39.81,-26.92 17.93,-7.46 42.82,-11.24 74.01,-11.24 30.99,0 56.68,1.11 76.35,3.32 15.89,1.78 29.76,3.86 41.29,6.19l0 54.22zm64.35 135.94c-0.69,-8.06 -0.94,-17.6 -0.94,-28.53l0 -240.4c0,-59.65 -17.09,-103.26 -50.78,-129.66 -32.94,-25.78 -79.69,-38.84 -138.96,-38.84 -40.56,0 -75.58,6.83 -104.19,20.26 -28.54,13.45 -48.83,26.03 -61.94,38.5l-6.91 6.52 35.57 45.99 8.35 -6.95c10.93,-9.12 26.96,-18.9 47.56,-29.04 19.89,-9.79 47.65,-14.83 82.54,-14.83 21.03,0 39.63,1.87 55.44,5.56 15.09,3.43 27.82,9.54 38.07,18.06 10.04,8.38 17.72,19.79 22.8,33.99 5.39,14.92 8.06,34.16 8.06,57.18l0 12.77c-12.59,-1.87 -26.84,-3.49 -42.47,-4.92 -21.24,-1.91 -45.87,-2.88 -73.21,-2.88 -35.69,0 -66.6,4.19 -91.95,12.54 -25.64,8.44 -46.96,20.18 -63.46,34.88 -16.57,14.88 -28.86,32.82 -36.58,53.33 -7.46,20.01 -11.23,41.54 -11.23,63.84 0,28.03 5.16,51.59 15.26,70.12 10.09,18.4 23.36,33.24 39.51,44.12 15.81,10.68 33.96,18.19 53.79,22.3 19.24,3.95 38.74,5.98 58.03,5.98 12.85,0 26.88,-1.35 41.84,-4.03 15.18,-2.71 30.91,-7.46 46.55,-14.15 15.94,-6.78 31.33,-16.2 45.9,-28.03 7.25,-5.93 14.25,-12.59 20.95,-19.92l0 1.7c0,9.37 0.33,17.47 0.97,23.1 0,7.5 0.34,14.24 1.02,20.39l0.98 9.36 62.31 0 -0.97 -11.35c-0.64,-7.63 -1.32,-16.57 -1.91,-26.96z"/>
   <polygon class="fil2" points="7928.12,2391.66 7992.52,2391.66 7992.52,1781.03 7928.12,1781.03 "/>
   <path class="fil2" d="M4571.53 796.72c12.04,-27.17 29.43,-51.63 52.05,-73.54 22.64,-21.83 50.92,-39.94 84.87,-54.3 33.91,-14.33 72.75,-21.5 116.54,-21.5 40.7,0 76.94,7.17 108.65,21.5 31.66,14.36 57.64,32.47 78.03,54.3 20.36,21.91 35.78,46.37 46.38,73.54 10.55,27.18 15.8,54.3 15.8,81.43l-520.42 0c0,-27.13 6.02,-54.25 18.1,-81.43zm730.05 602.76l-147.1 -164.43c-1.73,1.43 -2.97,2.53 -4.78,4.06 -17.39,14.33 -39.59,27.94 -66.81,40.7 -27.13,12.88 -59.9,24.16 -98.39,33.96 -38.49,9.82 -83.34,14.7 -134.63,14.7 -34.73,0 -69.78,-6.02 -105.26,-18.11 -35.44,-12.02 -67.1,-29.41 -95,-52.05 -27.93,-22.64 -50.56,-49.76 -67.87,-81.47 -17.37,-31.63 -26.02,-67.11 -26.02,-106.32l791.94 0 0 -38.49c0,-75.41 -9.03,-149.3 -27.13,-221.74 -18.1,-72.4 -47.57,-137.22 -88.25,-194.62 -40.74,-57.3 -94.67,-103.68 -161.81,-139.12 -67.1,-35.44 -148.96,-53.2 -245.48,-53.2 -80.04,0 -152.78,14.38 -218.4,43.02 -65.58,28.66 -122.17,67.87 -169.69,117.64 -47.53,49.81 -84.52,108.27 -110.9,175.36 -26.4,67.15 -39.59,139.98 -39.59,218.36 0,86.01 13.19,164.43 39.59,235.35 26.38,70.92 64.1,131.63 113.15,182.15 49,50.53 108.26,90.17 177.66,118.78 69.34,28.66 146.33,42.99 230.81,42.99 82.92,0 154.22,-9.03 213.82,-27.17 59.55,-18.06 108.65,-38.41 147.06,-61.04 38.48,-22.64 67.86,-44.14 88.29,-64.53 2,-1.95 2.97,-2.97 4.79,-4.78z"/>
   <polygon class="fil2" points="6586.72,1520.79 6853.73,1520.79 6853.73,459.55 6586.72,459.55 "/>
   <polygon class="fil2" points="6577.68,292.15 6862.8,292.15 6862.8,11.52 6577.68,11.52 "/>
   <path class="fil2" d="M7736.87 1145.2c0,27.13 -7.21,52.83 -21.53,76.91 -14.34,24.15 -32.77,45.26 -55.41,63.37 -22.68,18.1 -48.66,32.47 -78.08,43.02 -29.43,10.56 -59.98,15.81 -91.66,15.81 -63.32,0 -111.22,-12.8 -143.7,-38.45 -32.47,-25.64 -48.58,-61.08 -48.58,-106.36 0,-43.7 17.3,-82.57 52.06,-116.57 34.64,-33.91 94.99,-50.87 180.97,-50.87 16.57,0 36.54,0.38 59.97,1.1 23.33,0.81 45.58,1.95 66.73,3.39 25.65,1.53 52.02,3.05 79.23,4.54l0 104.11zm223.98 -492.14c-21.14,-47.53 -51.28,-88.26 -90.49,-122.22 -39.22,-33.91 -86.4,-60.32 -141.42,-79.19 -55.1,-18.86 -116.53,-28.27 -184.43,-28.27 -63.34,0 -118.78,4.16 -166.31,12.46 -47.52,8.27 -89.4,18.83 -125.56,31.67 -36.24,12.8 -67.91,27.12 -95.03,42.94 -27.14,15.86 -51.35,31.37 -72.41,46.46l122.17 181c34.68,-22.67 74.69,-43.74 119.92,-63.41 45.28,-19.55 105.6,-29.38 181.05,-29.38 67.83,0 122.89,15.1 165.16,45.28 42.21,30.17 63.37,71.64 63.37,124.42l0 24.87c-28.7,-1.48 -56.59,-3 -83.73,-4.49 -24.11,-1.48 -49.03,-2.62 -74.69,-3.43 -25.69,-0.72 -49.04,-1.1 -70.11,-1.1 -69.4,0 -132.77,8.3 -190.08,24.88 -57.4,16.66 -106.35,41.12 -147.1,73.55 -40.69,32.47 -72.4,72.4 -94.99,119.92 -22.68,47.52 -34,101.48 -34,161.8 0,58.85 10.94,110.13 32.81,153.88 21.84,43.75 50.53,79.57 86.02,107.46 35.43,27.94 74.64,48.62 117.62,62.23 43.03,13.57 86.35,20.4 130.15,20.4 72.4,0 138.02,-13.62 196.81,-40.79 58.88,-27.13 102.59,-58.04 131.29,-92.75l6.78 99.53 248.88 0 0 -712.75c0,-55.78 -10.56,-107.46 -31.68,-154.97z"/>
   <polygon class="fil2" points="4114.07,11.52 3835.78,11.52 3835.78,1084.09 3104.93,11.52 2817.56,11.52 2817.56,1520.79 3095.81,1520.79 3095.81,434.67 3833.49,1520.79 4114.07,1520.79 "/>
   <polygon class="fil2" points="6057.64,990.42 6420.71,459.99 6119.91,459.99 5907.24,770.67 5694.53,459.99 5393.73,459.99 5756.79,990.42 5393.73,1520.85 5694.53,1520.85 5907.24,1210.13 6119.91,1520.85 6420.71,1520.85 "/>
  </g>
 </g>
</svg>
