<?xml version="1.0" encoding="UTF-8"?>
<!DOCTYPE svg PUBLIC "-//W3C//DTD SVG 1.1//EN" "http://www.w3.org/Graphics/SVG/1.1/DTD/svg11.dtd">
<!-- Creator: CorelDRAW 2017 -->
<svg xmlns="http://www.w3.org/2000/svg" xml:space="preserve" width="53.34mm" height="16.51mm" version="1.1" style="shape-rendering:geometricPrecision; text-rendering:geometricPrecision; image-rendering:optimizeQuality; fill-rule:evenodd; clip-rule:evenodd"
viewBox="0 0 5334 1651"
 xmlns:xlink="http://www.w3.org/1999/xlink">
 <defs>
  <style type="text/css">
        
        :root {
            --logo-color: white;
            --logo-fil2-color: #606062;
            
        };


</style>
  <style type="text/css">

   <![CDATA[
    .fil2 {fill:white;fill-rule:nonzero}
    .fil0 {fill:white}
    .fil1 {fill:white}
   ]]>
  </style>
  <linearGradient id="id0" gradientUnits="userSpaceOnUse" x1="457.24" y1="378.26" x2="1375.72" y2="1024.13">
   <stop offset="0" style="stop-opacity:1; stop-color:#05B8B2"/>
   <stop offset="0.501961" style="stop-opacity:1; stop-color:#05B8B2"/>
   <stop offset="1" style="stop-opacity:1; stop-color:#005F63"/>
  </linearGradient>
  <linearGradient id="id1" gradientUnits="userSpaceOnUse" x1="229.17" y1="570.97" x2="1147.62" y2="1216.81">
   <stop offset="0" style="stop-opacity:1; stop-color:#046168"/>
   <stop offset="0.501961" style="stop-opacity:1; stop-color:#00B6B5"/>
   <stop offset="1" style="stop-opacity:1; stop-color:#00B6B5"/>
  </linearGradient>
 </defs>
 <g id="Layer_x0020_1">
  <metadata id="CorelCorpID_0Corel-Layer"/>
  <g id="_2874473870640">
   <g>
    <path class="fil0" d="M602.71 230.6c-34.26,23.46 -63.94,51.13 -89.06,81.7l0 0c79.79,-8.24 160.48,4.3 233.99,35.78l0 0c109.28,-45.06 239.22,-9.33 308.59,92.06l0 0 51.89 75.77 81.16 118.57 64.28 93.85c79.69,116.44 49.8,275.98 -66.61,355.7l0 0c-116.45,79.68 -275.99,49.82 -355.71,-66.61l0 0 -73.13 -106.89 -74.5 -108.81 -49.66 -72.54c-34.53,-50.45 -48.47,-109 -43.72,-165.65l0 0c-50.95,-6.62 -104.39,4.67 -150.04,35.93l0 0c-8.08,5.53 -15.65,11.58 -22.75,17.98l0 0c5.43,72.8 29.48,145.13 73.57,209.58l0 0 53 77.41 70.06 102.34 74.27 108.5c133.64,195.22 401.21,245.34 596.45,111.7l0 0c195.22,-133.67 245.33,-401.24 111.69,-596.49l0 0 -64.26 -93.85 -95.63 -139.67 -37.43 -54.67c-83.03,-121.31 -217.74,-186.57 -354.69,-186.57l0 0c-83.47,0 -167.81,24.27 -241.76,74.88l0 0z"/>
    <path class="fil1" d="M320.11 424.04c-195.22,133.67 -245.33,401.22 -111.69,596.46l0 0 53 77.4 70.03 102.31 74.27 108.48c133.64,195.27 401.21,245.36 596.45,111.72l0 0c34.26,-23.47 63.91,-51.14 89.03,-81.71l0 0c-79.79,8.22 -160.46,-4.3 -233.94,-35.79l0 0c-109.31,45.05 -239.22,9.35 -308.62,-92.04l0 0 -73.15 -106.84 -74.48 -108.84 -49.67 -72.54c-79.69,-116.44 -49.8,-275.98 66.61,-355.68l0 0c116.45,-79.69 275.99,-49.83 355.69,66.61l0 0 51.88 75.8 81.17 118.54 64.24 93.88c34.54,50.45 48.49,109.03 43.71,165.68l0 0c50.95,6.59 104.42,-4.7 150.05,-35.94l0 0c8.1,-5.52 15.64,-11.55 22.72,-17.95l0 0c-5.45,-72.82 -29.41,-145.15 -73.55,-209.61l0 0 -64.25 -93.88 -95.64 -139.69 -37.41 -54.67c-83.03,-121.32 -217.73,-186.57 -354.68,-186.57l0 0c-83.51,0 -167.84,24.26 -241.77,74.87l0 0z"/>
   </g>
   <g>
    <path class="fil2" d="M2925.15 833.79c8.01,-18.07 19.57,-34.34 34.62,-48.91 15.06,-14.52 33.86,-26.57 56.45,-36.12 22.55,-9.53 48.38,-14.3 77.5,-14.3 27.07,0 51.18,4.77 72.27,14.3 21.06,9.55 38.33,21.6 51.9,36.12 13.53,14.57 23.8,30.84 30.85,48.91 7.01,18.08 10.5,36.11 10.5,54.16l-346.13 0c0,-18.05 4.01,-36.08 12.04,-54.16zm485.56 400.89l-97.84 -109.36c-1.15,0.95 -1.97,1.68 -3.18,2.7 -11.56,9.53 -26.33,18.58 -44.44,27.07 -18.04,8.57 -39.84,16.07 -65.43,22.58 -25.6,6.54 -55.44,9.79 -89.55,9.79 -23.09,0 -46.4,-4.01 -70,-12.05 -23.57,-8 -44.63,-19.56 -63.19,-34.62 -18.57,-15.06 -33.63,-33.09 -45.14,-54.18 -11.55,-21.04 -17.31,-44.64 -17.31,-70.72l526.72 0 0 -25.6c0,-50.15 -6,-99.3 -18.04,-147.48 -12.04,-48.15 -31.64,-91.26 -58.7,-129.44 -27.09,-38.11 -62.96,-68.96 -107.62,-92.53 -44.63,-23.57 -99.07,-35.38 -163.27,-35.38 -53.23,0 -101.61,9.56 -145.25,28.61 -43.62,19.06 -81.25,45.14 -112.86,78.24 -31.61,33.13 -56.22,72.01 -73.76,116.64 -17.56,44.66 -26.33,93.1 -26.33,145.23 0,57.21 8.77,109.36 26.33,156.53 17.54,47.17 42.63,87.54 75.25,121.15 32.59,33.61 72.01,59.97 118.16,79 46.12,19.06 97.33,28.59 153.52,28.59 55.14,0 102.57,-6.01 142.21,-18.07 39.61,-12.01 72.26,-25.55 97.8,-40.6 25.6,-15.06 45.14,-29.36 58.73,-42.92 1.33,-1.29 1.97,-1.97 3.19,-3.18z"/>
    <polygon class="fil2" points="4265.45,1315.37 4443.04,1315.37 4443.04,609.53 4265.45,609.53 "/>
    <polygon class="fil2" points="4259.44,498.2 4449.07,498.2 4449.07,311.55 4259.44,311.55 "/>
    <path class="fil2" d="M5030.42 1065.56c0,18.05 -4.8,35.14 -14.33,51.15 -9.53,16.07 -21.79,30.11 -36.85,42.15 -15.09,12.04 -32.36,21.6 -51.93,28.61 -19.57,7.03 -39.89,10.52 -60.96,10.52 -42.12,0 -73.97,-8.51 -95.58,-25.57 -21.59,-17.06 -32.31,-40.63 -32.31,-70.74 0,-29.07 11.51,-54.92 34.63,-77.53 23.03,-22.55 63.18,-33.84 120.36,-33.84 11.02,0 24.3,0.26 39.89,0.74 15.51,0.53 30.31,1.29 44.38,2.25 17.06,1.01 34.59,2.03 52.7,3.02l0 69.24zm148.97 -327.32c-14.07,-31.61 -34.11,-58.7 -60.19,-81.29 -26.09,-22.55 -57.46,-40.12 -94.06,-52.67 -36.65,-12.54 -77.5,-18.8 -122.67,-18.8 -42.12,0 -79,2.76 -110.61,8.29 -31.6,5.49 -59.46,12.52 -83.5,21.06 -24.11,8.51 -45.17,18.04 -63.21,28.56 -18.05,10.55 -34.15,20.86 -48.16,30.9l81.25 120.39c23.07,-15.09 49.68,-29.1 79.76,-42.18 30.12,-13 70.24,-19.54 120.42,-19.54 45.11,0 81.73,10.04 109.85,30.12 28.07,20.06 42.15,47.64 42.15,82.74l0 16.55c-19.1,-0.99 -37.65,-2 -55.69,-2.99 -16.04,-0.98 -32.62,-1.74 -49.68,-2.28 -17.09,-0.48 -32.62,-0.73 -46.63,-0.73 -46.16,0 -88.31,5.52 -126.42,16.55 -38.18,11.07 -70.74,27.35 -97.84,48.92 -27.06,21.59 -48.15,48.15 -63.17,79.76 -15.09,31.6 -22.62,67.49 -22.62,107.61 0,39.13 7.28,73.24 21.82,102.34 14.53,29.1 33.61,52.92 57.21,71.47 23.57,18.59 49.65,32.34 78.23,41.39 28.62,9.03 57.43,13.57 86.57,13.57 48.15,0 91.79,-9.06 130.9,-27.13 39.16,-18.04 68.22,-38.6 87.32,-61.69l4.5 66.2 165.53 0 0 -474.05c0,-37.1 -7.02,-71.47 -21.06,-103.07z"/>
    <polygon class="fil2" points="2620.89,311.55 2435.8,311.55 2435.8,1024.92 1949.71,311.55 1758.59,311.55 1758.59,1315.37 1943.65,1315.37 1943.65,592.99 2434.28,1315.37 2620.89,1315.37 "/>
    <polygon class="fil2" points="3913.56,962.62 4155.04,609.83 3954.98,609.83 3813.53,816.46 3672.05,609.83 3471.99,609.83 3713.47,962.62 3471.99,1315.41 3672.05,1315.41 3813.53,1108.74 3954.98,1315.41 4155.04,1315.41 "/>
   </g>
  </g>
 </g>
</svg>
